<svg xmlns="http://www.w3.org/2000/svg" xmlns:xlink="http://www.w3.org/1999/xlink" width="500" zoomAndPan="magnify" viewBox="0 0 375 374.999991" height="500" preserveAspectRatio="xMidYMid meet" version="1.0"><defs><g/></defs><g fill="#000000" fill-opacity="1"><g transform="translate(64.229575, 202.005572)"><g><path d="M 2.984375 -1.1875 L 2.9375 -13.453125 L 3.03125 -14.390625 L 2.9375 -15.171875 L 2.984375 -15.9375 L 3.0625 -16.671875 L 2.984375 -17.609375 L 3.0625 -18.359375 L 3.03125 -19.21875 L 2.9375 -19.90625 L 3.109375 -24.484375 L 2.984375 -25.703125 L 3.109375 -27.390625 L 3.359375 -28.125 L 4.25 -28.578125 L 5.390625 -28.53125 L 6.25 -28.609375 L 8.34375 -28.609375 L 9.078125 -28.53125 L 10.671875 -28.53125 L 11.9375 -28.609375 L 12.75 -28.578125 L 13.984375 -28.65625 L 14.71875 -28.578125 L 16.3125 -28.65625 L 17.203125 -28.53125 L 19.65625 -28.578125 L 20.359375 -28.125 L 20.84375 -26.890625 L 20.765625 -25.34375 L 20.84375 -23.265625 L 20.4375 -22.4375 L 19.625 -22.03125 L 16.515625 -22.109375 L 15.65625 -22.03125 L 14.84375 -22.078125 L 14.109375 -22.03125 L 12.921875 -22.109375 L 11.609375 -22.109375 L 10.828125 -21.578125 L 10.421875 -20.765625 L 10.5 -18.921875 L 10.421875 -18.15625 L 10.421875 -17 L 10.875 -16.140625 L 11.6875 -15.8125 L 12.59375 -15.859375 L 14.1875 -15.65625 L 16.34375 -15.8125 L 18.359375 -15.734375 L 19.21875 -15.40625 L 19.625 -14.59375 L 19.65625 -10.953125 L 19.25 -9.6875 L 18.390625 -9.28125 L 16.71875 -9.203125 L 15.90625 -9.28125 L 15.046875 -9.234375 L 14.21875 -9.3125 L 13.40625 -9.15625 L 12.546875 -9.3125 L 11.65625 -9.234375 L 10.828125 -8.875 L 10.46875 -8.046875 L 10.5 -3.71875 L 10.421875 -2.9375 L 10.546875 -1.640625 L 10.0625 -0.40625 L 9.203125 -0.046875 L 7.15625 0.125 L 4.296875 0 L 3.390625 -0.40625 Z M 2.984375 -1.1875 "/></g></g></g><g fill="#000000" fill-opacity="1"><g transform="translate(90.145451, 202.005572)"><g><path d="M 3.0625 -1.671875 L 3.0625 -7.71875 L 2.984375 -8.546875 L 3.03125 -11.859375 L 3.109375 -12.625 L 3.03125 -13.40625 L 3.03125 -14.21875 L 2.984375 -15.125 L 3.109375 -16.765625 L 3.03125 -17.578125 L 2.984375 -26.9375 L 3.46875 -28.078125 L 4.203125 -28.484375 L 6.625 -28.6875 L 7.515625 -28.65625 L 8.34375 -28.484375 L 9.15625 -28.484375 L 9.890625 -28.6875 L 10.703125 -28.6875 L 11.53125 -28.53125 L 13.984375 -28.53125 L 15.171875 -28.609375 L 16.46875 -28.578125 L 18.796875 -28.046875 L 20.359375 -27.515625 L 21.78125 -26.734375 L 24.109375 -24.28125 L 24.5625 -23.625 L 24.890625 -22.9375 L 25.625 -20.59375 L 25.75 -19.78125 L 25.828125 -17.203125 L 25.296875 -14.84375 L 23.703125 -11.96875 L 23.140625 -11.484375 L 22.5625 -10.875 L 22.1875 -9.96875 L 22.234375 -9 L 22.71875 -8.375 L 24.03125 -6.25 L 24.40625 -5.515625 L 25.796875 -3.4375 L 26.125 -2.65625 L 26.609375 -2.078125 L 27.0625 -1.1875 L 26.8125 -0.28125 L 26.03125 0.078125 L 24.6875 0.125 L 23.90625 0.046875 L 20.6875 0.078125 L 19.296875 -0.28125 L 18.390625 -1.015625 L 17.9375 -1.71875 L 17.609375 -2.53125 L 17.171875 -3.140625 L 16.390625 -4.625 L 15.53125 -5.84375 L 15.203125 -6.578125 L 14.71875 -7.390625 L 13.890625 -8.09375 L 11.53125 -8.421875 L 10.75 -7.96875 L 10.375 -7.15625 L 10.296875 -4.53125 L 10.421875 -3.671875 L 10.34375 -2.9375 L 10.34375 -1.546875 L 9.96875 -0.375 L 8.671875 0.046875 L 7.4375 0.046875 L 6.78125 0.125 L 5.484375 0 L 4.65625 0.125 L 3.46875 -0.40625 Z M 11.53125 -14.953125 L 12.421875 -15.046875 L 14.390625 -14.953125 L 15.171875 -15 L 16.34375 -15.28125 L 17.078125 -15.609375 L 17.53125 -15.984375 L 17.984375 -16.59375 L 18.359375 -17.40625 L 18.46875 -18.640625 L 18.3125 -19.703125 L 18.0625 -20.359375 L 17.046875 -21.625 L 16.265625 -21.828125 L 15.203125 -21.90625 L 14.0625 -22.15625 L 12.421875 -21.984375 L 11.609375 -22.03125 L 10.75 -21.703125 L 10.375 -20.921875 L 10.296875 -19.21875 L 10.375 -18.515625 L 10.375 -16.0625 L 10.703125 -15.40625 Z M 11.53125 -14.953125 "/></g></g></g><g fill="#000000" fill-opacity="1"><g transform="translate(122.151712, 202.005572)"><g><path d="M 16.390625 0.53125 L 13.9375 0.40625 L 10.46875 -0.609375 L 9.6875 -0.9375 L 6.90625 -2.40625 L 6.375 -3.03125 L 5.234375 -4.125 L 3.3125 -6.75 L 2.90625 -7.484375 L 2.65625 -8.34375 L 2.046875 -9.734375 L 1.59375 -12.296875 L 1.75 -17.046875 L 2.078125 -18.796875 L 2.859375 -21.046875 L 3.234375 -21.75 L 4.625 -23.796875 L 5.71875 -25.015625 L 7.03125 -25.921875 L 7.609375 -26.40625 L 9.6875 -27.71875 L 11.234375 -28.125 L 11.96875 -28.453125 L 12.796875 -28.6875 L 13.609375 -28.859375 L 16.46875 -29.015625 L 18.390625 -28.984375 L 23.75 -27.296875 L 25.828125 -26 L 27.59375 -24.40625 L 28.125 -23.671875 L 28.609375 -23.171875 L 29.140625 -22.484375 L 29.4375 -21.75 L 30.171875 -20.390625 L 30.375 -19.453125 L 30.703125 -18.59375 L 31.03125 -17.078125 L 31.234375 -14.265625 L 31.03125 -11.40625 L 30.859375 -10.5 L 30.609375 -9.84375 L 30.5 -9.03125 L 30.203125 -8.25 L 28.609375 -5.4375 L 28.078125 -4.703125 L 25.21875 -1.96875 L 21.578125 -0.328125 L 20.03125 0.15625 Z M 15.25 -6.65625 L 17.609375 -6.75 L 18.390625 -6.953125 L 19.125 -7.03125 L 19.78125 -7.390625 L 20.515625 -7.71875 L 21.78125 -8.703125 L 22.28125 -9.4375 L 22.640625 -10.0625 L 23.09375 -10.671875 L 23.46875 -12.34375 L 23.703125 -14.390625 L 23.546875 -16.140625 L 23.265625 -16.875 L 23.015625 -17.703125 L 22.6875 -18.4375 L 21.75 -19.828125 L 20.484375 -20.765625 L 18.3125 -21.703125 L 16.34375 -21.828125 L 14.46875 -21.65625 L 13.609375 -21.453125 L 12.875 -21.09375 L 11.6875 -20.28125 L 11.078125 -19.75 L 10.546875 -19.09375 L 10.171875 -18.390625 L 9.6875 -17.828125 L 9.4375 -17.078125 L 9.15625 -15.578125 L 9.109375 -14.34375 L 9.3125 -12.296875 L 10.09375 -10.015625 L 10.625 -9.4375 L 11.03125 -8.875 L 12.296875 -7.765625 L 13.6875 -7.03125 L 14.421875 -6.953125 Z M 15.25 -6.65625 "/></g></g></g><g fill="#000000" fill-opacity="1"><g transform="translate(158.572475, 202.005572)"><g><path d="M 24.109375 -0.6875 L 23.5 -1.21875 L 22.4375 -2.40625 L 16.109375 -8.703125 L 15.40625 -9.15625 L 14.875 -9.765625 L 11.96875 -12.546875 L 11.4375 -13.25 L 10.90625 -13.453125 L 10.625 -12.75 L 10.546875 -11.9375 L 10.5 -1.59375 L 10.09375 -0.328125 L 9.28125 0.078125 L 8.421875 0.125 L 6.828125 0 L 5.921875 0.078125 L 4.25 0 L 3.390625 -0.28125 L 3.03125 -1.0625 L 2.9375 -4.5 L 3.03125 -5.265625 L 2.9375 -11.96875 L 3.0625 -12.671875 L 2.984375 -14.34375 L 3.03125 -15.046875 L 3.03125 -27.421875 L 3.390625 -28.203125 L 4.328125 -28.609375 L 5.5625 -28.328125 L 6.5 -27.828125 L 7.109375 -27.34375 L 15.171875 -19.21875 L 16.3125 -18.3125 L 19.21875 -15.40625 L 19.828125 -15.125 L 20.0625 -15.8125 L 20.15625 -23.140625 L 20.0625 -24.03125 L 20.1875 -25.75 L 20.0625 -26.40625 L 20.109375 -27.265625 L 20.5625 -28.125 L 21.34375 -28.578125 L 26.40625 -28.609375 L 27.21875 -28.15625 L 27.625 -27.34375 L 27.75 -21.65625 L 27.625 -20.6875 L 27.625 -16.640625 L 27.75 -15.9375 L 27.671875 -1.015625 L 27.265625 -0.203125 L 26.359375 0.078125 L 25.21875 -0.046875 Z M 24.109375 -0.6875 "/></g></g></g><g fill="#000000" fill-opacity="1"><g transform="translate(193.03124, 202.005572)"><g><path d="M 10.671875 0.078125 L 9.40625 0.046875 L 8.21875 -0.375 L 7.6875 -1.265625 L 7.765625 -2.046875 L 7.8125 -4.421875 L 7.71875 -5.265625 L 7.765625 -8.578125 L 7.84375 -9.40625 L 7.71875 -15.484375 L 7.8125 -16.640625 L 7.765625 -17.453125 L 7.8125 -18.359375 L 7.71875 -19.5 L 7.8125 -20.8125 L 7.359375 -21.625 L 6.578125 -22.03125 L 2.703125 -22.109375 L 1.875 -22.03125 L 1.140625 -22.4375 L 0.78125 -23.171875 L 0.6875 -24.4375 L 0.78125 -26.484375 L 0.734375 -27.296875 L 1.21875 -28.25 L 2 -28.65625 L 4.859375 -28.484375 L 6.125 -28.609375 L 8.546875 -28.484375 L 9.28125 -28.65625 L 10.171875 -28.578125 L 11.03125 -28.6875 L 11.8125 -28.65625 L 12.625 -28.484375 L 15.9375 -28.65625 L 16.71875 -28.578125 L 17.578125 -28.6875 L 18.359375 -28.609375 L 20.890625 -28.609375 L 21.65625 -28.078125 L 22.109375 -27.265625 L 22.078125 -23.375 L 21.578125 -22.484375 L 20.890625 -22.03125 L 20.15625 -22.078125 L 19.296875 -21.953125 L 17.78125 -22.15625 L 16.1875 -22.078125 L 15.40625 -21.578125 L 15.078125 -20.359375 L 14.953125 -16.796875 L 15.078125 -15.9375 L 15 -9.359375 L 15.125 -8.46875 L 15.046875 -7.71875 L 15.078125 -6.09375 L 15 -5.234375 L 15.125 -3.671875 L 15 -1.546875 L 14.59375 -0.40625 L 13.40625 0 Z M 10.671875 0.078125 "/></g></g></g><g fill="#000000" fill-opacity="1"><g transform="translate(219.519367, 202.005572)"><g><path d="M 14.21875 0.125 L 13.40625 0.046875 L 12.59375 0.125 L 11.65625 0.078125 L 10.875 -0.078125 L 9.203125 0.046875 L 8.46875 0 L 7.5625 0.078125 L 4.625 0.046875 L 3.390625 -0.484375 L 3.0625 -1.59375 L 2.984375 -2.5 L 3.109375 -5.3125 L 2.984375 -6.125 L 3.0625 -6.90625 L 3.109375 -13.53125 L 2.984375 -14.265625 L 3.03125 -17.609375 L 3.109375 -18.390625 L 2.984375 -19.25 L 3.0625 -23.265625 L 2.9375 -24.15625 L 3.0625 -25.828125 L 2.984375 -27.390625 L 3.4375 -28.25 L 4.296875 -28.578125 L 5.109375 -28.53125 L 5.921875 -28.609375 L 6.65625 -28.53125 L 7.4375 -28.6875 L 8.25 -28.578125 L 11.609375 -28.65625 L 12.421875 -28.578125 L 13.125 -28.609375 L 13.9375 -28.53125 L 14.84375 -28.609375 L 18.15625 -28.65625 L 18.890625 -28.484375 L 19.75 -28.484375 L 20.5625 -28.15625 L 20.921875 -27.390625 L 21.015625 -24.9375 L 20.96875 -24.109375 L 21.015625 -23.296875 L 20.59375 -22.5625 L 19.75 -22.078125 L 18.96875 -22.03125 L 13.125 -22.109375 L 12.34375 -21.953125 L 11.5625 -21.984375 L 10.671875 -21.65625 L 10.296875 -20.890625 L 10.296875 -19.625 L 10.625 -18.359375 L 11.484375 -17.984375 L 13.859375 -18.0625 L 15.578125 -17.9375 L 16.4375 -18.03125 L 18.84375 -18.03125 L 19.78125 -17.5 L 20.1875 -16.34375 L 20.0625 -12.671875 L 19.78125 -11.859375 L 18.96875 -11.53125 L 18.03125 -11.5625 L 17.203125 -11.484375 L 15.53125 -11.53125 L 13.984375 -11.4375 L 12.671875 -11.5625 L 11.4375 -11.53125 L 10.703125 -11.078125 L 10.34375 -10.21875 L 10.34375 -7.640625 L 10.671875 -6.90625 L 11.53125 -6.5 L 12.421875 -6.578125 L 13.203125 -6.453125 L 14.109375 -6.5 L 14.921875 -6.421875 L 16.265625 -6.578125 L 18.359375 -6.546875 L 19.125 -6.421875 L 20.0625 -6.5 L 20.921875 -6.125 L 21.375 -5.3125 L 21.375 -1.1875 L 20.921875 -0.328125 L 20.0625 0.046875 Z M 14.21875 0.125 "/></g></g></g><g fill="#000000" fill-opacity="1"><g transform="translate(246.579744, 202.005572)"><g><path d="M 24.109375 -0.6875 L 23.5 -1.21875 L 22.4375 -2.40625 L 16.109375 -8.703125 L 15.40625 -9.15625 L 14.875 -9.765625 L 11.96875 -12.546875 L 11.4375 -13.25 L 10.90625 -13.453125 L 10.625 -12.75 L 10.546875 -11.9375 L 10.5 -1.59375 L 10.09375 -0.328125 L 9.28125 0.078125 L 8.421875 0.125 L 6.828125 0 L 5.921875 0.078125 L 4.25 0 L 3.390625 -0.28125 L 3.03125 -1.0625 L 2.9375 -4.5 L 3.03125 -5.265625 L 2.9375 -11.96875 L 3.0625 -12.671875 L 2.984375 -14.34375 L 3.03125 -15.046875 L 3.03125 -27.421875 L 3.390625 -28.203125 L 4.328125 -28.609375 L 5.5625 -28.328125 L 6.5 -27.828125 L 7.109375 -27.34375 L 15.171875 -19.21875 L 16.3125 -18.3125 L 19.21875 -15.40625 L 19.828125 -15.125 L 20.0625 -15.8125 L 20.15625 -23.140625 L 20.0625 -24.03125 L 20.1875 -25.75 L 20.0625 -26.40625 L 20.109375 -27.265625 L 20.5625 -28.125 L 21.34375 -28.578125 L 26.40625 -28.609375 L 27.21875 -28.15625 L 27.625 -27.34375 L 27.75 -21.65625 L 27.625 -20.6875 L 27.625 -16.640625 L 27.75 -15.9375 L 27.671875 -1.015625 L 27.265625 -0.203125 L 26.359375 0.078125 L 25.21875 -0.046875 Z M 24.109375 -0.6875 "/></g></g></g><g fill="#000000" fill-opacity="1"><g transform="translate(281.03852, 202.005572)"><g><path d="M 12.59375 0.125 L 10.90625 -0.046875 L 10.09375 0.078125 L 5.109375 0 L 4.296875 0.078125 L 3.46875 -0.328125 L 3.0625 -1.59375 L 3.0625 -3.671875 L 2.984375 -4.453125 L 3.03125 -27.296875 L 3.390625 -28.15625 L 4.296875 -28.53125 L 5.109375 -28.484375 L 5.84375 -28.609375 L 15.171875 -28.53125 L 17.578125 -28.15625 L 18.4375 -27.953125 L 19.125 -27.625 L 19.953125 -27.46875 L 20.71875 -27.015625 L 22.8125 -25.625 L 24.96875 -23.21875 L 26.359375 -21.046875 L 26.6875 -20.28125 L 27.21875 -18.71875 L 27.796875 -15.484375 L 27.828125 -14.3125 L 27.71875 -13 L 27.71875 -12.140625 L 27.59375 -11.328125 L 27.34375 -10.625 L 27.1875 -9.765625 L 26.984375 -9 L 26.328125 -7.390625 L 25.828125 -6.75 L 25.421875 -5.921875 L 23.421875 -3.359375 L 20.6875 -1.515625 L 18.765625 -0.6875 L 17.078125 -0.40625 L 15.90625 -0.046875 L 15.078125 -0.046875 L 13.8125 0.125 Z M 12.46875 -6.578125 L 13.6875 -6.625 L 15.453125 -6.828125 L 16.640625 -7.1875 L 18.03125 -8.09375 L 19.53125 -9.8125 L 20.234375 -11.328125 L 20.640625 -14.1875 L 19.984375 -17.78125 L 19.625 -18.515625 L 19.21875 -19.21875 L 18.59375 -19.953125 L 17.984375 -20.515625 L 17.375 -20.96875 L 16.640625 -21.34375 L 15.046875 -21.78125 L 13.859375 -21.90625 L 12.140625 -21.875 L 10.828125 -21.578125 L 10.421875 -20.640625 L 10.34375 -19.953125 L 10.421875 -14.3125 L 10.265625 -12.265625 L 10.421875 -10.265625 L 10.375 -8.578125 L 10.421875 -7.890625 L 10.75 -7.109375 L 11.6875 -6.65625 Z M 12.46875 -6.578125 "/></g></g></g></svg>