<svg xmlns="http://www.w3.org/2000/svg" xmlns:xlink="http://www.w3.org/1999/xlink" width="500" zoomAndPan="magnify" viewBox="0 0 375 374.999991" height="500" preserveAspectRatio="xMidYMid meet" version="1.0"><defs><g/></defs><g fill="#000000" fill-opacity="1"><g transform="translate(141.120258, 202.005572)"><g><path d="M 12.59375 0.125 L 10.90625 -0.046875 L 10.09375 0.078125 L 5.109375 0 L 4.296875 0.078125 L 3.46875 -0.328125 L 3.0625 -1.59375 L 3.0625 -3.671875 L 2.984375 -4.453125 L 3.03125 -27.296875 L 3.390625 -28.15625 L 4.296875 -28.53125 L 5.109375 -28.484375 L 5.84375 -28.609375 L 15.171875 -28.53125 L 17.578125 -28.15625 L 18.4375 -27.953125 L 19.125 -27.625 L 19.953125 -27.46875 L 20.71875 -27.015625 L 22.8125 -25.625 L 24.96875 -23.21875 L 26.359375 -21.046875 L 26.6875 -20.28125 L 27.21875 -18.71875 L 27.796875 -15.484375 L 27.828125 -14.3125 L 27.71875 -13 L 27.71875 -12.140625 L 27.59375 -11.328125 L 27.34375 -10.625 L 27.1875 -9.765625 L 26.984375 -9 L 26.328125 -7.390625 L 25.828125 -6.75 L 25.421875 -5.921875 L 23.421875 -3.359375 L 20.6875 -1.515625 L 18.765625 -0.6875 L 17.078125 -0.40625 L 15.90625 -0.046875 L 15.078125 -0.046875 L 13.8125 0.125 Z M 12.46875 -6.578125 L 13.6875 -6.625 L 15.453125 -6.828125 L 16.640625 -7.1875 L 18.03125 -8.09375 L 19.53125 -9.8125 L 20.234375 -11.328125 L 20.640625 -14.1875 L 19.984375 -17.78125 L 19.625 -18.515625 L 19.21875 -19.21875 L 18.59375 -19.953125 L 17.984375 -20.515625 L 17.375 -20.96875 L 16.640625 -21.34375 L 15.046875 -21.78125 L 13.859375 -21.90625 L 12.140625 -21.875 L 10.828125 -21.578125 L 10.421875 -20.640625 L 10.34375 -19.953125 L 10.421875 -14.3125 L 10.265625 -12.265625 L 10.421875 -10.265625 L 10.375 -8.578125 L 10.421875 -7.890625 L 10.75 -7.109375 L 11.6875 -6.65625 Z M 12.46875 -6.578125 "/></g></g></g><g fill="#000000" fill-opacity="1"><g transform="translate(174.475401, 202.005572)"><g><path d="M 11 0.375 L 9.3125 0.078125 L 7.71875 -0.484375 L 6.90625 -0.734375 L 6.125 -1.109375 L 5.5625 -1.71875 L 4.125 -2.609375 L 3.59375 -3.234375 L 3.03125 -3.765625 L 2.25 -5.265625 L 2 -6.015625 L 1.84375 -6.828125 L 1.71875 -7.640625 L 2.046875 -8.5 L 2.78125 -8.828125 L 5.921875 -9 L 6.703125 -8.875 L 7.4375 -8.953125 L 8.25 -8.625 L 9.609375 -7.15625 L 10.296875 -6.703125 L 11 -6.328125 L 13.078125 -6.125 L 13.8125 -6.25 L 15.078125 -6.328125 L 16.46875 -6.953125 L 17 -7.5625 L 17.328125 -8.578125 L 17.078125 -9.609375 L 16.546875 -10.09375 L 15.078125 -10.796875 L 8.671875 -11.53125 L 7.1875 -12.015625 L 4.421875 -13.53125 L 2.90625 -15.40625 L 2.25 -16.84375 L 1.96875 -18.46875 L 1.921875 -19.75 L 2.046875 -21.75 L 2.78125 -24 L 4.203125 -25.921875 L 6.171875 -27.265625 L 7.5625 -28.078125 L 9.109375 -28.578125 L 9.84375 -28.6875 L 10.671875 -28.734375 L 11.5625 -28.984375 L 14.71875 -28.90625 L 16.3125 -28.578125 L 18.59375 -27.796875 L 21.296875 -25.921875 L 22.1875 -24.6875 L 23.34375 -22.5625 L 23.421875 -21.78125 L 23.578125 -21.015625 L 23.265625 -20.3125 L 22.484375 -19.75 L 21.75 -19.828125 L 20.921875 -19.828125 L 19.828125 -19.90625 L 17.90625 -19.75 L 17 -20.28125 L 16.390625 -21.09375 L 15.703125 -21.65625 L 14.953125 -22.15625 L 14.21875 -22.359375 L 12.921875 -22.515625 L 11.609375 -22.484375 L 10.875 -22.3125 L 10.21875 -21.953125 L 9.609375 -21.5 L 9.109375 -20.96875 L 8.90625 -19.859375 L 9.078125 -18.640625 L 9.6875 -18.0625 L 11.203125 -17.328125 L 13.359375 -16.875 L 14.546875 -16.875 L 15.40625 -16.71875 L 16.234375 -16.671875 L 17.046875 -16.546875 L 20.234375 -15.578125 L 20.96875 -15.125 L 21.625 -14.796875 L 22.359375 -14.140625 L 23.421875 -12.921875 L 23.875 -12.265625 L 24.484375 -9.890625 L 24.5625 -8.578125 L 24.328125 -6.546875 L 24.078125 -5.84375 L 23.828125 -5.109375 L 23.375 -4.203125 L 22.96875 -3.640625 L 21.78125 -2.40625 L 19 -0.734375 L 18.234375 -0.375 L 17.5 -0.28125 L 16.671875 0.046875 L 15.859375 0.15625 L 15.046875 0.375 L 14.21875 0.453125 Z M 11 0.375 "/></g></g></g><g fill="#000000" fill-opacity="1"><g transform="translate(204.192661, 202.005572)"><g><path d="M 24.109375 0.078125 L 23.265625 0 L 22.3125 -0.40625 L 21.5 -1.015625 L 21.25 -1.75 L 20.890625 -2.53125 L 20.109375 -3.1875 L 19.21875 -3.640625 L 18.3125 -3.515625 L 17.578125 -3.59375 L 13.578125 -3.5625 L 12.828125 -3.671875 L 11.125 -3.515625 L 10.34375 -3.640625 L 9.484375 -3.1875 L 8.703125 -2.40625 L 7.96875 -1.0625 L 7.1875 -0.328125 L 6.25 -0.046875 L 3.96875 0.046875 L 3.140625 -0.046875 L 1.546875 0.046875 L 0.734375 -0.203125 L 0.53125 -1.21875 L 0.78125 -2.046875 L 1.59375 -3.671875 L 1.796875 -4.421875 L 2.25 -4.984375 L 2.859375 -6.625 L 3.59375 -7.9375 L 3.890625 -8.75 L 4.296875 -9.359375 L 4.53125 -10.265625 L 8.703125 -19 L 8.953125 -19.75 L 9.40625 -20.515625 L 9.609375 -21.34375 L 10.0625 -21.953125 L 11.6875 -25.703125 L 12.0625 -26.28125 L 12.34375 -27.09375 L 12.71875 -27.796875 L 13.453125 -28.484375 L 14.75 -28.9375 L 16.109375 -28.53125 L 16.796875 -27.796875 L 17.578125 -26.359375 L 17.828125 -25.625 L 18.265625 -24.890625 L 18.515625 -24.078125 L 21.21875 -18.390625 L 21.5 -17.53125 L 22.359375 -16.015625 L 22.609375 -15.375 L 22.96875 -14.75 L 23.21875 -13.859375 L 23.625 -13.078125 L 24.03125 -12.46875 L 25.59375 -8.75 L 26.40625 -7.28125 L 26.984375 -5.765625 L 28.078125 -3.640625 L 28.6875 -2.125 L 28.984375 -1.1875 L 28.859375 -0.203125 L 27.71875 0 L 26.453125 0.046875 L 25.671875 -0.046875 Z M 14.84375 -10.09375 L 16.46875 -10.140625 L 17.078125 -10.46875 L 17.25 -11.203125 L 15.328125 -15.703125 L 14.75 -16.015625 L 14.3125 -15.65625 L 12.390625 -11.234375 L 12.421875 -10.46875 L 13.078125 -10.171875 L 14.015625 -10.265625 Z M 14.84375 -10.09375 "/></g></g></g></svg>