<svg xmlns="http://www.w3.org/2000/svg" xmlns:xlink="http://www.w3.org/1999/xlink" width="500" zoomAndPan="magnify" viewBox="0 0 375 374.999991" height="500" preserveAspectRatio="xMidYMid meet" version="1.0"><defs><g/></defs><g fill="#000000" fill-opacity="1"><g transform="translate(76.510824, 202.005572)"><g><path d="M 3.0625 -1.265625 L 2.984375 -2.046875 L 3.0625 -11 L 2.9375 -12.21875 L 3.109375 -20.03125 L 2.984375 -21.75 L 3.0625 -24.15625 L 3.03125 -24.890625 L 3.0625 -25.75 L 2.984375 -26.484375 L 2.984375 -27.390625 L 3.390625 -28.25 L 4.296875 -28.65625 L 9.234375 -28.578125 L 9.96875 -28.734375 L 11.5625 -28.53125 L 12.296875 -28.6875 L 16.515625 -28.578125 L 18.109375 -28.203125 L 18.796875 -27.953125 L 19.578125 -27.59375 L 20.28125 -27.1875 L 20.84375 -26.734375 L 21.453125 -26.328125 L 22.078125 -25.75 L 23.421875 -23.875 L 23.703125 -23.015625 L 24.03125 -21.546875 L 24.109375 -20.28125 L 24.078125 -18.890625 L 23.578125 -17.40625 L 22.8125 -15.8125 L 22.515625 -15.046875 L 22.9375 -14.109375 L 23.578125 -13.53125 L 24.109375 -12.921875 L 24.859375 -11.234375 L 25.296875 -9.765625 L 25.21875 -6.453125 L 24.890625 -5.6875 L 24.640625 -4.90625 L 24.234375 -4.09375 L 23.140625 -2.578125 L 21.5 -1.265625 L 20.765625 -0.90625 L 18.46875 -0.25 L 17.734375 -0.125 L 13.53125 0.078125 L 12.71875 -0.046875 L 6.78125 0.046875 L 5.5625 -0.078125 L 4.203125 0.046875 L 3.4375 -0.453125 Z M 11.4375 -17.453125 L 14.59375 -17.578125 L 15.78125 -17.984375 L 16.390625 -18.46875 L 16.671875 -19.65625 L 16.546875 -20.890625 L 16.234375 -21.546875 L 15.578125 -21.875 L 11.359375 -22.15625 L 10.59375 -21.65625 L 10.09375 -20.484375 L 10.140625 -19.09375 L 10.59375 -17.9375 Z M 11.328125 -6.546875 L 14.46875 -6.453125 L 16.71875 -6.65625 L 17.40625 -7.109375 L 17.859375 -7.6875 L 18.0625 -8.875 L 17.828125 -9.890625 L 17.40625 -10.625 L 16.71875 -10.90625 L 12.875 -11.28125 L 12.015625 -11.203125 L 11.234375 -11.328125 L 10.546875 -10.796875 L 10.171875 -10.09375 L 10.0625 -7.640625 L 10.59375 -6.828125 Z M 11.328125 -6.546875 "/></g></g></g><g fill="#000000" fill-opacity="1"><g transform="translate(107.127326, 202.005572)"><g><path d="M 24.109375 0.078125 L 23.265625 0 L 22.3125 -0.40625 L 21.5 -1.015625 L 21.25 -1.75 L 20.890625 -2.53125 L 20.109375 -3.1875 L 19.21875 -3.640625 L 18.3125 -3.515625 L 17.578125 -3.59375 L 13.578125 -3.5625 L 12.828125 -3.671875 L 11.125 -3.515625 L 10.34375 -3.640625 L 9.484375 -3.1875 L 8.703125 -2.40625 L 7.96875 -1.0625 L 7.1875 -0.328125 L 6.25 -0.046875 L 3.96875 0.046875 L 3.140625 -0.046875 L 1.546875 0.046875 L 0.734375 -0.203125 L 0.53125 -1.21875 L 0.78125 -2.046875 L 1.59375 -3.671875 L 1.796875 -4.421875 L 2.25 -4.984375 L 2.859375 -6.625 L 3.59375 -7.9375 L 3.890625 -8.75 L 4.296875 -9.359375 L 4.53125 -10.265625 L 8.703125 -19 L 8.953125 -19.75 L 9.40625 -20.515625 L 9.609375 -21.34375 L 10.0625 -21.953125 L 11.6875 -25.703125 L 12.0625 -26.28125 L 12.34375 -27.09375 L 12.71875 -27.796875 L 13.453125 -28.484375 L 14.75 -28.9375 L 16.109375 -28.53125 L 16.796875 -27.796875 L 17.578125 -26.359375 L 17.828125 -25.625 L 18.265625 -24.890625 L 18.515625 -24.078125 L 21.21875 -18.390625 L 21.5 -17.53125 L 22.359375 -16.015625 L 22.609375 -15.375 L 22.96875 -14.75 L 23.21875 -13.859375 L 23.625 -13.078125 L 24.03125 -12.46875 L 25.59375 -8.75 L 26.40625 -7.28125 L 26.984375 -5.765625 L 28.078125 -3.640625 L 28.6875 -2.125 L 28.984375 -1.1875 L 28.859375 -0.203125 L 27.71875 0 L 26.453125 0.046875 L 25.671875 -0.046875 Z M 14.84375 -10.09375 L 16.46875 -10.140625 L 17.078125 -10.46875 L 17.25 -11.203125 L 15.328125 -15.703125 L 14.75 -16.015625 L 14.3125 -15.65625 L 12.390625 -11.234375 L 12.421875 -10.46875 L 13.078125 -10.171875 L 14.015625 -10.265625 Z M 14.84375 -10.09375 "/></g></g></g><g fill="#000000" fill-opacity="1"><g transform="translate(140.441591, 202.005572)"><g><path d="M 14.21875 0.328125 L 13.453125 0.28125 L 12.71875 0.125 L 11.890625 -0.15625 L 11.15625 -0.328125 L 9.3125 -1.109375 L 7.5625 -2.046875 L 5.71875 -3.640625 L 4.046875 -5.4375 L 2.28125 -9 L 1.71875 -11.328125 L 1.46875 -14.3125 L 1.875 -17.828125 L 2.28125 -19.5 L 3.3125 -21.78125 L 4.09375 -22.96875 L 5.1875 -24.359375 L 6.953125 -25.953125 L 8.140625 -26.859375 L 11.15625 -28.28125 L 15.125 -29.0625 L 17.65625 -29.015625 L 18.46875 -28.90625 L 19.25 -28.859375 L 23.171875 -27.546875 L 25.953125 -25.796875 L 27.09375 -24.609375 L 27.546875 -23.828125 L 28.125 -23.140625 L 28.484375 -22.484375 L 28.9375 -21.828125 L 29.1875 -20.96875 L 29.46875 -20.234375 L 29.71875 -19.328125 L 29.4375 -18.515625 L 28.734375 -18.1875 L 27.515625 -18.0625 L 26.359375 -18.1875 L 25.546875 -18.15625 L 24.6875 -18.1875 L 23.953125 -18.109375 L 23.015625 -18.5625 L 22.234375 -19.328125 L 21.78125 -19.953125 L 20.59375 -21.125 L 20.03125 -21.578125 L 19.296875 -21.875 L 18.03125 -22.234375 L 16.265625 -22.3125 L 13.53125 -21.953125 L 12.421875 -21.34375 L 11.4375 -20.5625 L 10.46875 -19.421875 L 10.0625 -18.640625 L 9.4375 -17.171875 L 9.15625 -15.53125 L 9.15625 -13.046875 L 9.28125 -12.140625 L 9.484375 -11.40625 L 9.765625 -10.828125 L 10.0625 -10.015625 L 10.953125 -8.578125 L 12.140625 -7.515625 L 13.578125 -6.78125 L 15.046875 -6.25 L 16.234375 -6.125 L 18.390625 -6.25 L 19.828125 -7.03125 L 20.4375 -7.28125 L 21.09375 -7.84375 L 22.03125 -8.90625 L 22.4375 -9.6875 L 23.09375 -10.34375 L 24.03125 -10.828125 L 24.859375 -10.796875 L 25.671875 -10.828125 L 26.484375 -10.703125 L 28.78125 -10.875 L 29.59375 -10.34375 L 29.84375 -9.609375 L 28.78125 -6.5 L 27.921875 -5.03125 L 26.984375 -3.796875 L 25.828125 -2.65625 L 23.828125 -1.21875 L 23.140625 -0.90625 L 22.28125 -0.609375 L 21.546875 -0.203125 L 19.125 0.28125 L 16.265625 0.484375 Z M 14.21875 0.328125 "/></g></g></g><g fill="#000000" fill-opacity="1"><g transform="translate(175.268225, 202.005572)"><g><path d="M 4.25 0.125 L 3.515625 -0.375 L 3.109375 -1.640625 L 3.03125 -3.71875 L 3.109375 -4.53125 L 3.03125 -5.390625 L 3.0625 -6.046875 L 2.984375 -7.71875 L 3.109375 -9.40625 L 3.03125 -10.140625 L 3.0625 -11.734375 L 2.9375 -12.625 L 3.109375 -14.3125 L 2.984375 -15 L 3.0625 -20.03125 L 2.9375 -20.84375 L 3.0625 -21.65625 L 2.984375 -26.65625 L 3.0625 -27.34375 L 3.4375 -28.125 L 4.25 -28.65625 L 5.15625 -28.6875 L 5.96875 -28.609375 L 6.75 -28.65625 L 8.78125 -28.453125 L 9.96875 -28.078125 L 10.5 -27.421875 L 10.421875 -25.75 L 10.46875 -24.484375 L 10.375 -23.5 L 10.46875 -22.765625 L 10.5 -19.828125 L 10.46875 -19.046875 L 10.671875 -18.1875 L 11.359375 -17.703125 L 12.265625 -17.703125 L 13.078125 -17.9375 L 13.984375 -18.0625 L 14.71875 -18.390625 L 16.140625 -19.421875 L 17.078125 -20.71875 L 17.328125 -21.578125 L 17.578125 -22.1875 L 17.90625 -24.859375 L 17.859375 -25.671875 L 17.984375 -26.453125 L 17.984375 -27.34375 L 18.3125 -28.125 L 19.171875 -28.609375 L 20.390625 -28.65625 L 21.625 -28.484375 L 22.96875 -28.65625 L 24.203125 -28.53125 L 25.09375 -28.15625 L 25.46875 -27.34375 L 25.34375 -24.8125 L 25.421875 -24 L 25.140625 -21.375 L 24.4375 -19 L 24.15625 -18.265625 L 23.546875 -17.203125 L 22.234375 -15.53125 L 20.96875 -14.46875 L 20.4375 -13.609375 L 20.59375 -12.671875 L 21.953125 -10.5 L 22.28125 -9.8125 L 22.71875 -9.03125 L 23.171875 -8.46875 L 24.4375 -6.375 L 24.96875 -5.71875 L 27.515625 -1.109375 L 27.296875 -0.203125 L 26.453125 0 L 25.625 -0.046875 L 24.890625 0.046875 L 20.765625 0.078125 L 19.828125 -0.328125 L 19.046875 -1.109375 L 18.640625 -1.640625 L 18.234375 -2.40625 L 17.734375 -3.03125 L 16.96875 -4.53125 L 16.59375 -5.109375 L 16.3125 -5.796875 L 14.640625 -8.546875 L 14.34375 -9.40625 L 13.9375 -10.0625 L 13 -10.75 L 11.890625 -10.828125 L 10.875 -10.375 L 10.421875 -9.6875 L 10.546875 -5.390625 L 10.421875 -4.53125 L 10.5 -1.265625 L 10.0625 -0.375 L 9.234375 -0.046875 L 7.9375 0.078125 L 6.78125 0 Z M 4.25 0.125 "/></g></g></g><g fill="#000000" fill-opacity="1"><g transform="translate(207.233609, 202.005572)"><g><path d="M 14.21875 0.125 L 13.40625 0.046875 L 12.59375 0.125 L 11.65625 0.078125 L 10.875 -0.078125 L 9.203125 0.046875 L 8.46875 0 L 7.5625 0.078125 L 4.625 0.046875 L 3.390625 -0.484375 L 3.0625 -1.59375 L 2.984375 -2.5 L 3.109375 -5.3125 L 2.984375 -6.125 L 3.0625 -6.90625 L 3.109375 -13.53125 L 2.984375 -14.265625 L 3.03125 -17.609375 L 3.109375 -18.390625 L 2.984375 -19.25 L 3.0625 -23.265625 L 2.9375 -24.15625 L 3.0625 -25.828125 L 2.984375 -27.390625 L 3.4375 -28.25 L 4.296875 -28.578125 L 5.109375 -28.53125 L 5.921875 -28.609375 L 6.65625 -28.53125 L 7.4375 -28.6875 L 8.25 -28.578125 L 11.609375 -28.65625 L 12.421875 -28.578125 L 13.125 -28.609375 L 13.9375 -28.53125 L 14.84375 -28.609375 L 18.15625 -28.65625 L 18.890625 -28.484375 L 19.75 -28.484375 L 20.5625 -28.15625 L 20.921875 -27.390625 L 21.015625 -24.9375 L 20.96875 -24.109375 L 21.015625 -23.296875 L 20.59375 -22.5625 L 19.75 -22.078125 L 18.96875 -22.03125 L 13.125 -22.109375 L 12.34375 -21.953125 L 11.5625 -21.984375 L 10.671875 -21.65625 L 10.296875 -20.890625 L 10.296875 -19.625 L 10.625 -18.359375 L 11.484375 -17.984375 L 13.859375 -18.0625 L 15.578125 -17.9375 L 16.4375 -18.03125 L 18.84375 -18.03125 L 19.78125 -17.5 L 20.1875 -16.34375 L 20.0625 -12.671875 L 19.78125 -11.859375 L 18.96875 -11.53125 L 18.03125 -11.5625 L 17.203125 -11.484375 L 15.53125 -11.53125 L 13.984375 -11.4375 L 12.671875 -11.5625 L 11.4375 -11.53125 L 10.703125 -11.078125 L 10.34375 -10.21875 L 10.34375 -7.640625 L 10.671875 -6.90625 L 11.53125 -6.5 L 12.421875 -6.578125 L 13.203125 -6.453125 L 14.109375 -6.5 L 14.921875 -6.421875 L 16.265625 -6.578125 L 18.359375 -6.546875 L 19.125 -6.421875 L 20.0625 -6.5 L 20.921875 -6.125 L 21.375 -5.3125 L 21.375 -1.1875 L 20.921875 -0.328125 L 20.0625 0.046875 Z M 14.21875 0.125 "/></g></g></g><g fill="#000000" fill-opacity="1"><g transform="translate(234.293986, 202.005572)"><g><path d="M 24.109375 -0.6875 L 23.5 -1.21875 L 22.4375 -2.40625 L 16.109375 -8.703125 L 15.40625 -9.15625 L 14.875 -9.765625 L 11.96875 -12.546875 L 11.4375 -13.25 L 10.90625 -13.453125 L 10.625 -12.75 L 10.546875 -11.9375 L 10.5 -1.59375 L 10.09375 -0.328125 L 9.28125 0.078125 L 8.421875 0.125 L 6.828125 0 L 5.921875 0.078125 L 4.25 0 L 3.390625 -0.28125 L 3.03125 -1.0625 L 2.9375 -4.5 L 3.03125 -5.265625 L 2.9375 -11.96875 L 3.0625 -12.671875 L 2.984375 -14.34375 L 3.03125 -15.046875 L 3.03125 -27.421875 L 3.390625 -28.203125 L 4.328125 -28.609375 L 5.5625 -28.328125 L 6.5 -27.828125 L 7.109375 -27.34375 L 15.171875 -19.21875 L 16.3125 -18.3125 L 19.21875 -15.40625 L 19.828125 -15.125 L 20.0625 -15.8125 L 20.15625 -23.140625 L 20.0625 -24.03125 L 20.1875 -25.75 L 20.0625 -26.40625 L 20.109375 -27.265625 L 20.5625 -28.125 L 21.34375 -28.578125 L 26.40625 -28.609375 L 27.21875 -28.15625 L 27.625 -27.34375 L 27.75 -21.65625 L 27.625 -20.6875 L 27.625 -16.640625 L 27.75 -15.9375 L 27.671875 -1.015625 L 27.265625 -0.203125 L 26.359375 0.078125 L 25.21875 -0.046875 Z M 24.109375 -0.6875 "/></g></g></g><g fill="#000000" fill-opacity="1"><g transform="translate(268.752739, 202.005572)"><g><path d="M 12.59375 0.125 L 10.90625 -0.046875 L 10.09375 0.078125 L 5.109375 0 L 4.296875 0.078125 L 3.46875 -0.328125 L 3.0625 -1.59375 L 3.0625 -3.671875 L 2.984375 -4.453125 L 3.03125 -27.296875 L 3.390625 -28.15625 L 4.296875 -28.53125 L 5.109375 -28.484375 L 5.84375 -28.609375 L 15.171875 -28.53125 L 17.578125 -28.15625 L 18.4375 -27.953125 L 19.125 -27.625 L 19.953125 -27.46875 L 20.71875 -27.015625 L 22.8125 -25.625 L 24.96875 -23.21875 L 26.359375 -21.046875 L 26.6875 -20.28125 L 27.21875 -18.71875 L 27.796875 -15.484375 L 27.828125 -14.3125 L 27.71875 -13 L 27.71875 -12.140625 L 27.59375 -11.328125 L 27.34375 -10.625 L 27.1875 -9.765625 L 26.984375 -9 L 26.328125 -7.390625 L 25.828125 -6.75 L 25.421875 -5.921875 L 23.421875 -3.359375 L 20.6875 -1.515625 L 18.765625 -0.6875 L 17.078125 -0.40625 L 15.90625 -0.046875 L 15.078125 -0.046875 L 13.8125 0.125 Z M 12.46875 -6.578125 L 13.6875 -6.625 L 15.453125 -6.828125 L 16.640625 -7.1875 L 18.03125 -8.09375 L 19.53125 -9.8125 L 20.234375 -11.328125 L 20.640625 -14.1875 L 19.984375 -17.78125 L 19.625 -18.515625 L 19.21875 -19.21875 L 18.59375 -19.953125 L 17.984375 -20.515625 L 17.375 -20.96875 L 16.640625 -21.34375 L 15.046875 -21.78125 L 13.859375 -21.90625 L 12.140625 -21.875 L 10.828125 -21.578125 L 10.421875 -20.640625 L 10.34375 -19.953125 L 10.421875 -14.3125 L 10.265625 -12.265625 L 10.421875 -10.265625 L 10.375 -8.578125 L 10.421875 -7.890625 L 10.75 -7.109375 L 11.6875 -6.65625 Z M 12.46875 -6.578125 "/></g></g></g></svg>