<svg xmlns="http://www.w3.org/2000/svg" xmlns:xlink="http://www.w3.org/1999/xlink" width="500" zoomAndPan="magnify" viewBox="0 0 375 374.999991" height="500" preserveAspectRatio="xMidYMid meet" version="1.0"><defs><g/></defs><g fill="#000000" fill-opacity="1"><g transform="translate(20.592919, 202.005572)"><g><path d="M 14.0625 0.53125 L 12.75 0.453125 L 11.9375 0.453125 L 10.34375 0.125 L 8.78125 -0.578125 L 8.171875 -0.9375 L 7.359375 -1.3125 L 6.046875 -2.171875 L 5.4375 -2.703125 L 4.953125 -3.265625 L 4 -4.734375 L 3.359375 -6.125 L 2.9375 -7.8125 L 2.703125 -11.078125 L 2.828125 -17.65625 L 2.734375 -18.4375 L 2.859375 -19.25 L 2.734375 -24.96875 L 2.828125 -25.625 L 2.828125 -26.609375 L 2.734375 -27.421875 L 3.265625 -28.203125 L 4.125 -28.53125 L 4.984375 -28.65625 L 6.75 -28.484375 L 7.5625 -28.609375 L 8.34375 -28.609375 L 9.203125 -28.25 L 9.6875 -27.34375 L 9.765625 -26.15625 L 9.6875 -24.859375 L 9.765625 -24.234375 L 9.640625 -11.078125 L 9.890625 -8.703125 L 10.140625 -7.9375 L 10.625 -7.28125 L 11.28125 -6.78125 L 11.96875 -6.375 L 12.921875 -6.171875 L 15.375 -6.171875 L 16.796875 -6.703125 L 17.5 -7.1875 L 17.9375 -8.015625 L 18.1875 -8.625 L 18.46875 -11.15625 L 18.390625 -27.265625 L 18.84375 -28.15625 L 19.703125 -28.578125 L 21.421875 -28.453125 L 24 -28.53125 L 24.890625 -28.25 L 25.421875 -27.390625 L 25.296875 -26.5625 L 25.296875 -23.171875 L 25.390625 -22.515625 L 25.296875 -21.625 L 25.390625 -20.84375 L 25.390625 -9.8125 L 25.171875 -7.84375 L 24.8125 -6.125 L 24.40625 -5.4375 L 24.15625 -4.625 L 23.21875 -3.1875 L 22.078125 -2.046875 L 20.71875 -1.140625 L 19.25 -0.375 L 16.0625 0.453125 L 15.28125 0.40625 Z M 14.0625 0.53125 "/></g></g></g><g fill="#000000" fill-opacity="1"><g transform="translate(52.435679, 202.005572)"><g><path d="M 13.6875 0.15625 L 12.875 -0.046875 L 10.875 -0.046875 L 9.640625 0.125 L 8.015625 -0.046875 L 7.1875 0.046875 L 5.921875 0.078125 L 4.734375 -0.078125 L 3.96875 0 L 3.1875 0 L 2.375 -0.375 L 1.96875 -1.46875 L 2.078125 -5.234375 L 2.53125 -5.96875 L 5.234375 -6.78125 L 5.6875 -8.015625 L 5.5625 -20.5625 L 5.1875 -21.65625 L 4.421875 -22.15625 L 3.59375 -22.15625 L 2.703125 -22.609375 L 2.25 -23.421875 L 2.328125 -24.203125 L 2.203125 -27.21875 L 2.609375 -28.203125 L 3.4375 -28.609375 L 4.375 -28.609375 L 5.15625 -28.484375 L 8.5 -28.484375 L 9.3125 -28.65625 L 10.0625 -28.578125 L 15 -28.578125 L 15.734375 -28.125 L 16.234375 -27.34375 L 16.1875 -23.296875 L 15.78125 -22.640625 L 14.921875 -22.3125 L 14.109375 -22.1875 L 13.203125 -21.828125 L 12.921875 -20.890625 L 12.75 -16.765625 L 12.921875 -13.8125 L 12.828125 -12.921875 L 12.875 -8.421875 L 12.75 -7.640625 L 13.25 -6.703125 L 14.21875 -6.375 L 15.078125 -6.375 L 15.984375 -5.921875 L 16.46875 -5.15625 L 16.46875 -1.109375 L 16.0625 -0.328125 L 15.328125 0.078125 Z M 13.6875 0.15625 "/></g></g></g><g fill="#000000" fill-opacity="1"><g transform="translate(74.631917, 202.005572)"><g><path d="M 5.390625 0 L 4.171875 -0.046875 L 3.390625 0.078125 L 2.203125 0.125 L 1.390625 0 L 0.375 -0.28125 L 0.328125 -1.140625 L 7.484375 -15.703125 L 7.765625 -16.46875 L 8.421875 -17.9375 L 8.875 -18.640625 L 9.203125 -19.421875 L 9.640625 -20.0625 L 9.9375 -20.84375 L 13.203125 -27.546875 L 13.859375 -28.28125 L 14.875 -28.53125 L 16.4375 -28.578125 L 18.03125 -28.453125 L 18.890625 -28.609375 L 19.65625 -28.53125 L 20.234375 -28.15625 L 20.234375 -27.46875 L 19.171875 -25.21875 L 18.921875 -24.53125 L 17.046875 -20.921875 L 16.765625 -20.1875 L 14.953125 -16.4375 L 14.671875 -15.65625 L 14.265625 -15.046875 L 11.078125 -8.34375 L 10.296875 -7.03125 L 9.734375 -5.4375 L 8.546875 -3.390625 L 8.21875 -2.5 L 7.8125 -1.796875 L 7.515625 -1.109375 L 6.75 -0.40625 Z M 5.390625 0 "/></g></g></g><g fill="#000000" fill-opacity="1"><g transform="translate(98.994533, 202.005572)"><g><path d="M 14.0625 0.53125 L 12.75 0.453125 L 11.9375 0.453125 L 10.34375 0.125 L 8.78125 -0.578125 L 8.171875 -0.9375 L 7.359375 -1.3125 L 6.046875 -2.171875 L 5.4375 -2.703125 L 4.953125 -3.265625 L 4 -4.734375 L 3.359375 -6.125 L 2.9375 -7.8125 L 2.703125 -11.078125 L 2.828125 -17.65625 L 2.734375 -18.4375 L 2.859375 -19.25 L 2.734375 -24.96875 L 2.828125 -25.625 L 2.828125 -26.609375 L 2.734375 -27.421875 L 3.265625 -28.203125 L 4.125 -28.53125 L 4.984375 -28.65625 L 6.75 -28.484375 L 7.5625 -28.609375 L 8.34375 -28.609375 L 9.203125 -28.25 L 9.6875 -27.34375 L 9.765625 -26.15625 L 9.6875 -24.859375 L 9.765625 -24.234375 L 9.640625 -11.078125 L 9.890625 -8.703125 L 10.140625 -7.9375 L 10.625 -7.28125 L 11.28125 -6.78125 L 11.96875 -6.375 L 12.921875 -6.171875 L 15.375 -6.171875 L 16.796875 -6.703125 L 17.5 -7.1875 L 17.9375 -8.015625 L 18.1875 -8.625 L 18.46875 -11.15625 L 18.390625 -27.265625 L 18.84375 -28.15625 L 19.703125 -28.578125 L 21.421875 -28.453125 L 24 -28.53125 L 24.890625 -28.25 L 25.421875 -27.390625 L 25.296875 -26.5625 L 25.296875 -23.171875 L 25.390625 -22.515625 L 25.296875 -21.625 L 25.390625 -20.84375 L 25.390625 -9.8125 L 25.171875 -7.84375 L 24.8125 -6.125 L 24.40625 -5.4375 L 24.15625 -4.625 L 23.21875 -3.1875 L 22.078125 -2.046875 L 20.71875 -1.140625 L 19.25 -0.375 L 16.0625 0.453125 L 15.28125 0.40625 Z M 14.0625 0.53125 "/></g></g></g><g fill="#000000" fill-opacity="1"><g transform="translate(130.837292, 202.005572)"><g><path d="M 0.53125 -1.015625 L 0.90625 -1.96875 L 1.3125 -2.734375 L 1.75 -3.3125 L 2.171875 -4.09375 L 3.0625 -5.3125 L 4.375 -7.484375 L 4.859375 -8.09375 L 5.6875 -9.5625 L 6.21875 -10.09375 L 6.625 -10.828125 L 7.03125 -11.328125 L 7.84375 -12.796875 L 8.78125 -14.140625 L 8.953125 -15.046875 L 8.703125 -16.140625 L 8.34375 -16.765625 L 7.765625 -17.5 L 6.953125 -18.890625 L 6.453125 -19.5 L 6.015625 -20.28125 L 5.515625 -20.890625 L 4.65625 -22.359375 L 3.515625 -23.953125 L 2.859375 -25.140625 L 1.84375 -26.484375 L 1.4375 -27.390625 L 1.515625 -28.28125 L 2.453125 -28.53125 L 3.671875 -28.484375 L 4.953125 -28.65625 L 5.890625 -28.53125 L 6.703125 -28.53125 L 7.609375 -28.65625 L 8.578125 -28.203125 L 9.4375 -27.515625 L 11.53125 -24.15625 L 11.8125 -23.421875 L 12.265625 -22.890625 L 12.671875 -22.078125 L 13.078125 -21.421875 L 13.65625 -21.546875 L 15.484375 -24.109375 L 15.78125 -24.9375 L 17.125 -26.8125 L 17.453125 -27.59375 L 18.390625 -28.203125 L 19.375 -28.578125 L 20.15625 -28.65625 L 23.09375 -28.53125 L 24.40625 -28.609375 L 25.296875 -28.328125 L 25.5 -27.46875 L 23.140625 -23.796875 L 22.765625 -23.046875 L 19.859375 -18.921875 L 19.453125 -18.15625 L 18.640625 -16.875 L 18.0625 -16.140625 L 17.859375 -15.171875 L 18.109375 -14.140625 L 18.59375 -13.53125 L 20.484375 -10.375 L 21.703125 -8.78125 L 22.484375 -7.359375 L 23.015625 -6.625 L 23.296875 -6.09375 L 24.734375 -4.125 L 25.09375 -3.4375 L 26 -2.125 L 26.484375 -1.109375 L 26.359375 -0.15625 L 25.546875 0.046875 L 24.734375 -0.078125 L 20.03125 0.15625 L 19.046875 -0.28125 L 18.265625 -1.0625 L 14.1875 -7.9375 L 13.6875 -8.546875 L 13.203125 -8.578125 L 12.75 -7.96875 L 11.96875 -6.421875 L 11.4375 -5.890625 L 11.078125 -5.109375 L 9.890625 -3.109375 L 9.53125 -2.28125 L 9.078125 -1.671875 L 8.75 -1.015625 L 7.84375 -0.375 L 6.90625 -0.078125 L 5.6875 0.046875 L 1.390625 0.078125 L 0.65625 -0.203125 Z M 0.53125 -1.015625 "/></g></g></g><g fill="#000000" fill-opacity="1"><g transform="translate(161.57643, 202.005572)"><g/></g></g><g fill="#000000" fill-opacity="1"><g transform="translate(176.292535, 202.005572)"><g><path d="M 12.59375 0.125 L 10.90625 -0.046875 L 10.09375 0.078125 L 5.109375 0 L 4.296875 0.078125 L 3.46875 -0.328125 L 3.0625 -1.59375 L 3.0625 -3.671875 L 2.984375 -4.453125 L 3.03125 -27.296875 L 3.390625 -28.15625 L 4.296875 -28.53125 L 5.109375 -28.484375 L 5.84375 -28.609375 L 15.171875 -28.53125 L 17.578125 -28.15625 L 18.4375 -27.953125 L 19.125 -27.625 L 19.953125 -27.46875 L 20.71875 -27.015625 L 22.8125 -25.625 L 24.96875 -23.21875 L 26.359375 -21.046875 L 26.6875 -20.28125 L 27.21875 -18.71875 L 27.796875 -15.484375 L 27.828125 -14.3125 L 27.71875 -13 L 27.71875 -12.140625 L 27.59375 -11.328125 L 27.34375 -10.625 L 27.1875 -9.765625 L 26.984375 -9 L 26.328125 -7.390625 L 25.828125 -6.75 L 25.421875 -5.921875 L 23.421875 -3.359375 L 20.6875 -1.515625 L 18.765625 -0.6875 L 17.078125 -0.40625 L 15.90625 -0.046875 L 15.078125 -0.046875 L 13.8125 0.125 Z M 12.46875 -6.578125 L 13.6875 -6.625 L 15.453125 -6.828125 L 16.640625 -7.1875 L 18.03125 -8.09375 L 19.53125 -9.8125 L 20.234375 -11.328125 L 20.640625 -14.1875 L 19.984375 -17.78125 L 19.625 -18.515625 L 19.21875 -19.21875 L 18.59375 -19.953125 L 17.984375 -20.515625 L 17.375 -20.96875 L 16.640625 -21.34375 L 15.046875 -21.78125 L 13.859375 -21.90625 L 12.140625 -21.875 L 10.828125 -21.578125 L 10.421875 -20.640625 L 10.34375 -19.953125 L 10.421875 -14.3125 L 10.265625 -12.265625 L 10.421875 -10.265625 L 10.375 -8.578125 L 10.421875 -7.890625 L 10.75 -7.109375 L 11.6875 -6.65625 Z M 12.46875 -6.578125 "/></g></g></g><g fill="#000000" fill-opacity="1"><g transform="translate(209.647677, 202.005572)"><g><path d="M 14.21875 0.125 L 13.40625 0.046875 L 12.59375 0.125 L 11.65625 0.078125 L 10.875 -0.078125 L 9.203125 0.046875 L 8.46875 0 L 7.5625 0.078125 L 4.625 0.046875 L 3.390625 -0.484375 L 3.0625 -1.59375 L 2.984375 -2.5 L 3.109375 -5.3125 L 2.984375 -6.125 L 3.0625 -6.90625 L 3.109375 -13.53125 L 2.984375 -14.265625 L 3.03125 -17.609375 L 3.109375 -18.390625 L 2.984375 -19.25 L 3.0625 -23.265625 L 2.9375 -24.15625 L 3.0625 -25.828125 L 2.984375 -27.390625 L 3.4375 -28.25 L 4.296875 -28.578125 L 5.109375 -28.53125 L 5.921875 -28.609375 L 6.65625 -28.53125 L 7.4375 -28.6875 L 8.25 -28.578125 L 11.609375 -28.65625 L 12.421875 -28.578125 L 13.125 -28.609375 L 13.9375 -28.53125 L 14.84375 -28.609375 L 18.15625 -28.65625 L 18.890625 -28.484375 L 19.75 -28.484375 L 20.5625 -28.15625 L 20.921875 -27.390625 L 21.015625 -24.9375 L 20.96875 -24.109375 L 21.015625 -23.296875 L 20.59375 -22.5625 L 19.75 -22.078125 L 18.96875 -22.03125 L 13.125 -22.109375 L 12.34375 -21.953125 L 11.5625 -21.984375 L 10.671875 -21.65625 L 10.296875 -20.890625 L 10.296875 -19.625 L 10.625 -18.359375 L 11.484375 -17.984375 L 13.859375 -18.0625 L 15.578125 -17.9375 L 16.4375 -18.03125 L 18.84375 -18.03125 L 19.78125 -17.5 L 20.1875 -16.34375 L 20.0625 -12.671875 L 19.78125 -11.859375 L 18.96875 -11.53125 L 18.03125 -11.5625 L 17.203125 -11.484375 L 15.53125 -11.53125 L 13.984375 -11.4375 L 12.671875 -11.5625 L 11.4375 -11.53125 L 10.703125 -11.078125 L 10.34375 -10.21875 L 10.34375 -7.640625 L 10.671875 -6.90625 L 11.53125 -6.5 L 12.421875 -6.578125 L 13.203125 -6.453125 L 14.109375 -6.5 L 14.921875 -6.421875 L 16.265625 -6.578125 L 18.359375 -6.546875 L 19.125 -6.421875 L 20.0625 -6.5 L 20.921875 -6.125 L 21.375 -5.3125 L 21.375 -1.1875 L 20.921875 -0.328125 L 20.0625 0.046875 Z M 14.21875 0.125 "/></g></g></g><g fill="#000000" fill-opacity="1"><g transform="translate(236.708054, 202.005572)"><g><path d="M 11 0.375 L 9.3125 0.078125 L 7.71875 -0.484375 L 6.90625 -0.734375 L 6.125 -1.109375 L 5.5625 -1.71875 L 4.125 -2.609375 L 3.59375 -3.234375 L 3.03125 -3.765625 L 2.25 -5.265625 L 2 -6.015625 L 1.84375 -6.828125 L 1.71875 -7.640625 L 2.046875 -8.5 L 2.78125 -8.828125 L 5.921875 -9 L 6.703125 -8.875 L 7.4375 -8.953125 L 8.25 -8.625 L 9.609375 -7.15625 L 10.296875 -6.703125 L 11 -6.328125 L 13.078125 -6.125 L 13.8125 -6.25 L 15.078125 -6.328125 L 16.46875 -6.953125 L 17 -7.5625 L 17.328125 -8.578125 L 17.078125 -9.609375 L 16.546875 -10.09375 L 15.078125 -10.796875 L 8.671875 -11.53125 L 7.1875 -12.015625 L 4.421875 -13.53125 L 2.90625 -15.40625 L 2.25 -16.84375 L 1.96875 -18.46875 L 1.921875 -19.75 L 2.046875 -21.75 L 2.78125 -24 L 4.203125 -25.921875 L 6.171875 -27.265625 L 7.5625 -28.078125 L 9.109375 -28.578125 L 9.84375 -28.6875 L 10.671875 -28.734375 L 11.5625 -28.984375 L 14.71875 -28.90625 L 16.3125 -28.578125 L 18.59375 -27.796875 L 21.296875 -25.921875 L 22.1875 -24.6875 L 23.34375 -22.5625 L 23.421875 -21.78125 L 23.578125 -21.015625 L 23.265625 -20.3125 L 22.484375 -19.75 L 21.75 -19.828125 L 20.921875 -19.828125 L 19.828125 -19.90625 L 17.90625 -19.75 L 17 -20.28125 L 16.390625 -21.09375 L 15.703125 -21.65625 L 14.953125 -22.15625 L 14.21875 -22.359375 L 12.921875 -22.515625 L 11.609375 -22.484375 L 10.875 -22.3125 L 10.21875 -21.953125 L 9.609375 -21.5 L 9.109375 -20.96875 L 8.90625 -19.859375 L 9.078125 -18.640625 L 9.6875 -18.0625 L 11.203125 -17.328125 L 13.359375 -16.875 L 14.546875 -16.875 L 15.40625 -16.71875 L 16.234375 -16.671875 L 17.046875 -16.546875 L 20.234375 -15.578125 L 20.96875 -15.125 L 21.625 -14.796875 L 22.359375 -14.140625 L 23.421875 -12.921875 L 23.875 -12.265625 L 24.484375 -9.890625 L 24.5625 -8.578125 L 24.328125 -6.546875 L 24.078125 -5.84375 L 23.828125 -5.109375 L 23.375 -4.203125 L 22.96875 -3.640625 L 21.78125 -2.40625 L 19 -0.734375 L 18.234375 -0.375 L 17.5 -0.28125 L 16.671875 0.046875 L 15.859375 0.15625 L 15.046875 0.375 L 14.21875 0.453125 Z M 11 0.375 "/></g></g></g><g fill="#000000" fill-opacity="1"><g transform="translate(266.425314, 202.005572)"><g><path d="M 13.6875 0.15625 L 12.875 -0.046875 L 10.875 -0.046875 L 9.640625 0.125 L 8.015625 -0.046875 L 7.1875 0.046875 L 5.921875 0.078125 L 4.734375 -0.078125 L 3.96875 0 L 3.1875 0 L 2.375 -0.375 L 1.96875 -1.46875 L 2.078125 -5.234375 L 2.53125 -5.96875 L 5.234375 -6.78125 L 5.6875 -8.015625 L 5.5625 -20.5625 L 5.1875 -21.65625 L 4.421875 -22.15625 L 3.59375 -22.15625 L 2.703125 -22.609375 L 2.25 -23.421875 L 2.328125 -24.203125 L 2.203125 -27.21875 L 2.609375 -28.203125 L 3.4375 -28.609375 L 4.375 -28.609375 L 5.15625 -28.484375 L 8.5 -28.484375 L 9.3125 -28.65625 L 10.0625 -28.578125 L 15 -28.578125 L 15.734375 -28.125 L 16.234375 -27.34375 L 16.1875 -23.296875 L 15.78125 -22.640625 L 14.921875 -22.3125 L 14.109375 -22.1875 L 13.203125 -21.828125 L 12.921875 -20.890625 L 12.75 -16.765625 L 12.921875 -13.8125 L 12.828125 -12.921875 L 12.875 -8.421875 L 12.75 -7.640625 L 13.25 -6.703125 L 14.21875 -6.375 L 15.078125 -6.375 L 15.984375 -5.921875 L 16.46875 -5.15625 L 16.46875 -1.109375 L 16.0625 -0.328125 L 15.328125 0.078125 Z M 13.6875 0.15625 "/></g></g></g><g fill="#000000" fill-opacity="1"><g transform="translate(288.621541, 202.005572)"><g><path d="M 14.1875 0.40625 L 13.359375 0.15625 L 11.03125 -0.25 L 10.34375 -0.453125 L 7.515625 -2.078125 L 6.171875 -3.03125 L 4.53125 -4.734375 L 3.59375 -6.125 L 2.859375 -7.515625 L 1.71875 -11.359375 L 1.515625 -14.21875 L 1.546875 -15.53125 L 2.28125 -19.578125 L 3.796875 -22.640625 L 4.25 -23.265625 L 4.859375 -23.875 L 5.390625 -24.53125 L 7.1875 -26.125 L 9.4375 -27.515625 L 12.59375 -28.65625 L 13.359375 -28.6875 L 14.0625 -28.9375 L 14.875 -28.984375 L 18.6875 -28.8125 L 20.59375 -28.28125 L 21.453125 -28.125 L 24.328125 -26.609375 L 24.9375 -26.125 L 25.59375 -25.5 L 26.484375 -24.765625 L 28.125 -22.40625 L 28.484375 -21.65625 L 29.0625 -19.984375 L 28.8125 -19.296875 L 27.796875 -18.84375 L 25.828125 -18.96875 L 24.609375 -18.796875 L 23.34375 -18.84375 L 22.359375 -19.125 L 21.5 -19.828125 L 20.96875 -20.515625 L 20.484375 -21.046875 L 19.703125 -21.578125 L 18.921875 -21.90625 L 17.40625 -22.3125 L 14.921875 -22.234375 L 14.21875 -21.90625 L 13.453125 -21.828125 L 12.75 -21.453125 L 11.328125 -20.4375 L 10.0625 -18.515625 L 9.40625 -17.046875 L 9.109375 -15.453125 L 9.15625 -13.078125 L 9.359375 -11.765625 L 9.6875 -10.59375 L 10.46875 -9.109375 L 10.90625 -8.546875 L 12.140625 -7.390625 L 14.34375 -6.5 L 16.4375 -6.25 L 17.5 -6.296875 L 19.09375 -6.65625 L 20.4375 -7.1875 L 21.015625 -7.640625 L 21.625 -8.34375 L 22.03125 -9.03125 L 21.90625 -9.734375 L 21.296875 -10.015625 L 20.5625 -10.140625 L 18.515625 -9.96875 L 17.328125 -10.0625 L 16.59375 -10.5 L 16.234375 -11.15625 L 16.234375 -15.046875 L 16.59375 -15.8125 L 17.40625 -16.234375 L 18.96875 -16.34375 L 21.421875 -16.1875 L 26.9375 -16.3125 L 27.796875 -16.1875 L 28.65625 -16.140625 L 29.4375 -15.734375 L 29.84375 -15.046875 L 29.921875 -13.484375 L 29.84375 -12.71875 L 29.84375 -11.890625 L 29.671875 -11.15625 L 29.640625 -10.46875 L 29.3125 -8.90625 L 28.484375 -6.5 L 28 -5.921875 L 27.625 -5.1875 L 27.21875 -4.5 L 26.734375 -3.921875 L 26.125 -3.4375 L 25.5 -2.78125 L 24.234375 -1.796875 L 21.34375 -0.328125 L 18.265625 0.40625 Z M 14.1875 0.40625 "/></g></g></g><g fill="#000000" fill-opacity="1"><g transform="translate(323.570811, 202.005572)"><g><path d="M 24.109375 -0.6875 L 23.5 -1.21875 L 22.4375 -2.40625 L 16.109375 -8.703125 L 15.40625 -9.15625 L 14.875 -9.765625 L 11.96875 -12.546875 L 11.4375 -13.25 L 10.90625 -13.453125 L 10.625 -12.75 L 10.546875 -11.9375 L 10.5 -1.59375 L 10.09375 -0.328125 L 9.28125 0.078125 L 8.421875 0.125 L 6.828125 0 L 5.921875 0.078125 L 4.25 0 L 3.390625 -0.28125 L 3.03125 -1.0625 L 2.9375 -4.5 L 3.03125 -5.265625 L 2.9375 -11.96875 L 3.0625 -12.671875 L 2.984375 -14.34375 L 3.03125 -15.046875 L 3.03125 -27.421875 L 3.390625 -28.203125 L 4.328125 -28.609375 L 5.5625 -28.328125 L 6.5 -27.828125 L 7.109375 -27.34375 L 15.171875 -19.21875 L 16.3125 -18.3125 L 19.21875 -15.40625 L 19.828125 -15.125 L 20.0625 -15.8125 L 20.15625 -23.140625 L 20.0625 -24.03125 L 20.1875 -25.75 L 20.0625 -26.40625 L 20.109375 -27.265625 L 20.5625 -28.125 L 21.34375 -28.578125 L 26.40625 -28.609375 L 27.21875 -28.15625 L 27.625 -27.34375 L 27.75 -21.65625 L 27.625 -20.6875 L 27.625 -16.640625 L 27.75 -15.9375 L 27.671875 -1.015625 L 27.265625 -0.203125 L 26.359375 0.078125 L 25.21875 -0.046875 Z M 24.109375 -0.6875 "/></g></g></g></svg>